<mxfile host="Electron" modified="2024-06-11T12:43:19.610Z" agent="Mozilla/5.0 (Windows NT 10.0; Win64; x64) AppleWebKit/537.36 (KHTML, like Gecko) draw.io/22.1.21 Chrome/120.0.6099.109 Electron/28.1.0 Safari/537.36" etag="9rGq65H3yVX5peGnBqro" version="22.1.21" type="device">
  <diagram name="Page-1" id="J7z-fm82BFJfw0sOrrcT">
    <mxGraphModel dx="794" dy="511" grid="1" gridSize="10" guides="1" tooltips="1" connect="1" arrows="1" fold="1" page="1" pageScale="1" pageWidth="850" pageHeight="1100" math="0" shadow="0">
      <root>
        <mxCell id="0" />
        <mxCell id="1" parent="0" />
        <mxCell id="BleQHOXip_mB2XFsyJhQ-3" value="" style="whiteSpace=wrap;html=1;fillColor=none;" vertex="1" parent="1">
          <mxGeometry x="120" y="80" width="560" height="640" as="geometry" />
        </mxCell>
        <mxCell id="BleQHOXip_mB2XFsyJhQ-2" value="Front end" style="text;html=1;strokeColor=none;fillColor=none;align=left;verticalAlign=middle;whiteSpace=wrap;rounded=0;fontStyle=1;fontSize=17;" vertex="1" parent="1">
          <mxGeometry x="120" y="80" width="560" height="40" as="geometry" />
        </mxCell>
        <mxCell id="BleQHOXip_mB2XFsyJhQ-4" value="NEXT" style="text;html=1;strokeColor=none;fillColor=none;align=left;verticalAlign=middle;whiteSpace=wrap;rounded=0;" vertex="1" parent="1">
          <mxGeometry x="199" y="160" width="481" height="40" as="geometry" />
        </mxCell>
        <mxCell id="BleQHOXip_mB2XFsyJhQ-5" value="REACT" style="text;html=1;strokeColor=none;fillColor=none;align=left;verticalAlign=middle;whiteSpace=wrap;rounded=0;" vertex="1" parent="1">
          <mxGeometry x="199" y="200" width="481" height="40" as="geometry" />
        </mxCell>
        <mxCell id="BleQHOXip_mB2XFsyJhQ-6" value="TYPESCRIPT" style="text;html=1;strokeColor=none;fillColor=none;align=left;verticalAlign=middle;whiteSpace=wrap;rounded=0;" vertex="1" parent="1">
          <mxGeometry x="199" y="240" width="481" height="40" as="geometry" />
        </mxCell>
        <mxCell id="BleQHOXip_mB2XFsyJhQ-7" value="&lt;b&gt;JAVASCRIPT&lt;/b&gt;" style="text;html=1;strokeColor=none;fillColor=none;align=left;verticalAlign=middle;whiteSpace=wrap;rounded=0;" vertex="1" parent="1">
          <mxGeometry x="159" y="120" width="520" height="40" as="geometry" />
        </mxCell>
        <mxCell id="BleQHOXip_mB2XFsyJhQ-8" value="TAILWIND CSS" style="text;html=1;strokeColor=none;fillColor=none;align=left;verticalAlign=middle;whiteSpace=wrap;rounded=0;" vertex="1" parent="1">
          <mxGeometry x="200" y="320" width="480" height="40" as="geometry" />
        </mxCell>
        <mxCell id="BleQHOXip_mB2XFsyJhQ-9" value="SASS" style="text;html=1;strokeColor=none;fillColor=none;align=left;verticalAlign=middle;whiteSpace=wrap;rounded=0;" vertex="1" parent="1">
          <mxGeometry x="200" y="360" width="480" height="40" as="geometry" />
        </mxCell>
        <mxCell id="BleQHOXip_mB2XFsyJhQ-11" value="&lt;b&gt;CSS&lt;/b&gt;" style="text;html=1;strokeColor=none;fillColor=none;align=left;verticalAlign=middle;whiteSpace=wrap;rounded=0;" vertex="1" parent="1">
          <mxGeometry x="160" y="280" width="520" height="40" as="geometry" />
        </mxCell>
        <mxCell id="BleQHOXip_mB2XFsyJhQ-12" value="HERO ICONS" style="text;html=1;strokeColor=none;fillColor=none;align=left;verticalAlign=middle;whiteSpace=wrap;rounded=0;" vertex="1" parent="1">
          <mxGeometry x="200" y="440" width="480" height="40" as="geometry" />
        </mxCell>
        <mxCell id="BleQHOXip_mB2XFsyJhQ-14" value="&lt;b&gt;ICON SET&lt;/b&gt;" style="text;html=1;strokeColor=none;fillColor=none;align=left;verticalAlign=middle;whiteSpace=wrap;rounded=0;" vertex="1" parent="1">
          <mxGeometry x="160" y="400" width="520" height="40" as="geometry" />
        </mxCell>
        <mxCell id="BleQHOXip_mB2XFsyJhQ-15" value="Back end" style="text;html=1;strokeColor=none;fillColor=none;align=left;verticalAlign=middle;whiteSpace=wrap;rounded=0;fontStyle=1;fontSize=17;" vertex="1" parent="1">
          <mxGeometry x="120" y="520" width="560" height="40" as="geometry" />
        </mxCell>
        <mxCell id="BleQHOXip_mB2XFsyJhQ-16" value="&lt;b&gt;PHP&lt;/b&gt;" style="text;html=1;strokeColor=none;fillColor=none;align=left;verticalAlign=middle;whiteSpace=wrap;rounded=0;" vertex="1" parent="1">
          <mxGeometry x="160" y="560" width="520" height="40" as="geometry" />
        </mxCell>
        <mxCell id="BleQHOXip_mB2XFsyJhQ-17" value="LARAVEL" style="text;html=1;strokeColor=none;fillColor=none;align=left;verticalAlign=middle;whiteSpace=wrap;rounded=0;" vertex="1" parent="1">
          <mxGeometry x="200" y="600" width="480" height="40" as="geometry" />
        </mxCell>
        <mxCell id="BleQHOXip_mB2XFsyJhQ-18" value="&lt;b&gt;RDBMS/SQL&lt;/b&gt;" style="text;html=1;strokeColor=none;fillColor=none;align=left;verticalAlign=middle;whiteSpace=wrap;rounded=0;" vertex="1" parent="1">
          <mxGeometry x="160" y="640" width="520" height="40" as="geometry" />
        </mxCell>
        <mxCell id="BleQHOXip_mB2XFsyJhQ-19" value="MARIADB" style="text;html=1;strokeColor=none;fillColor=none;align=left;verticalAlign=middle;whiteSpace=wrap;rounded=0;" vertex="1" parent="1">
          <mxGeometry x="200" y="680" width="480" height="40" as="geometry" />
        </mxCell>
      </root>
    </mxGraphModel>
  </diagram>
</mxfile>
